<?xml version="1.0" encoding="UTF-8"?><svg id="Layer_2" xmlns="http://www.w3.org/2000/svg" viewBox="0 0 390.78 32.8"><defs><style>.cls-1{fill:#fff;stroke-width:0px;}</style></defs><g id="IR_LOGO"><g id="LETTERS"><polygon id="M" class="cls-1" points="376.02 28.08 375.32 28.08 369.18 .6 360.56 .6 360.56 32.2 365.07 32.2 365.07 4.73 365.65 4.73 371.85 32.2 379.49 32.2 385.69 4.73 386.27 4.73 386.27 32.2 390.78 32.2 390.78 .6 382.16 .6 376.02 28.08"/><path id="O" class="cls-1" d="M348.31,2.18C346.06.74,343.31,0,340.14,0s-5.92.73-8.17,2.18c-2.25,1.45-3.96,3.44-5.09,5.93-1.11,2.45-1.68,5.24-1.68,8.29s.56,5.84,1.68,8.29c1.13,2.49,2.84,4.48,5.09,5.93,2.25,1.45,5,2.18,8.17,2.18s5.92-.73,8.17-2.18c2.25-1.45,3.96-3.45,5.09-5.93,1.11-2.45,1.68-5.24,1.68-8.29s-.57-5.83-1.68-8.29c-1.13-2.49-2.84-4.48-5.09-5.93ZM340.14,28.72c-2.24,0-4.16-.53-5.7-1.59-1.55-1.06-2.73-2.53-3.52-4.36-.8-1.88-1.21-4.02-1.21-6.37s.41-4.5,1.21-6.37c.78-1.83,1.97-3.3,3.52-4.36,1.54-1.05,3.46-1.59,5.7-1.59s4.16.53,5.7,1.59c1.55,1.06,2.73,2.53,3.52,4.36.8,1.88,1.21,4.02,1.21,6.37s-.41,4.49-1.21,6.37c-.79,1.84-1.97,3.3-3.52,4.36-1.54,1.06-3.46,1.59-5.7,1.59Z"/><path id="O-2" class="cls-1" d="M314.63,2.18C312.38.74,309.63,0,306.46,0s-5.92.73-8.17,2.18c-2.25,1.45-3.96,3.44-5.09,5.93-1.11,2.45-1.68,5.24-1.68,8.29s.56,5.84,1.68,8.29c1.13,2.49,2.84,4.48,5.09,5.93,2.25,1.45,5,2.18,8.17,2.18s5.92-.73,8.17-2.18c2.25-1.45,3.96-3.45,5.09-5.93,1.11-2.45,1.68-5.24,1.68-8.29s-.57-5.83-1.68-8.29c-1.13-2.49-2.84-4.48-5.09-5.93ZM306.46,28.72c-2.24,0-4.16-.53-5.7-1.59-1.55-1.06-2.73-2.53-3.52-4.36-.8-1.88-1.21-4.02-1.21-6.37s.41-4.5,1.21-6.37c.78-1.83,1.97-3.3,3.52-4.36,1.54-1.05,3.46-1.59,5.7-1.59s4.16.53,5.7,1.59c1.55,1.06,2.73,2.53,3.52,4.36.8,1.88,1.21,4.02,1.21,6.37s-.41,4.49-1.21,6.37c-.79,1.84-1.97,3.3-3.52,4.36-1.54,1.06-3.46,1.59-5.7,1.59Z"/><path id="R" class="cls-1" d="M282.88,18.77c1.48-.86,2.67-2.05,3.54-3.54.87-1.49,1.31-3.13,1.31-4.89s-.44-3.41-1.31-4.89c-.87-1.48-2.06-2.67-3.54-3.54-1.49-.87-3.13-1.31-4.89-1.31h-14.73v31.6h4.51v-8.79l18.79,9.25v-4.95l-16.19-7.63h7.62c1.76,0,3.41-.44,4.89-1.31ZM277.99,15.95h-10.21V4.73h10.21c.95,0,1.81.24,2.61.75.8.5,1.44,1.19,1.91,2.04.47.86.7,1.81.7,2.82s-.24,1.96-.7,2.82c-.47.87-1.1,1.54-1.91,2.04-.8.5-1.66.75-2.61.75Z"/><polygon id="E" class="cls-1" points="238.83 .6 216.26 .6 216.26 7.34 234.57 15.52 216.26 15.52 216.26 22.26 238.83 32.62 238.83 28.05 220.46 19.65 238.83 19.65 238.83 12.86 220.54 4.73 238.83 4.73 238.83 .6"/><path id="C" class="cls-1" d="M207.1,19.7c-.38,2.81-1.31,5.06-2.78,6.67-1.44,1.59-3.48,2.36-6.24,2.36-2.24,0-4.15-.53-5.68-1.59-1.54-1.06-2.71-2.53-3.5-4.36-.8-1.88-1.21-4.02-1.21-6.37s.41-4.5,1.21-6.37c.78-1.84,1.96-3.3,3.5-4.36,1.53-1.05,3.44-1.59,5.68-1.59,2.35,0,4.24.6,5.61,1.79,1.4,1.21,2.4,2.93,2.99,5.09l.15.55h4.61l-.21-.92c-.75-3.27-2.22-5.87-4.37-7.75-2.17-1.89-5.13-2.85-8.79-2.85-3.17,0-5.92.73-8.17,2.18-2.25,1.45-3.96,3.44-5.09,5.93-1.11,2.45-1.68,5.24-1.68,8.29s.56,5.84,1.68,8.29c1.13,2.49,2.84,4.48,5.09,5.93,2.25,1.45,5,2.18,8.17,2.18,4.09,0,7.3-1.19,9.53-3.54,2.2-2.32,3.55-5.47,4.03-9.37l.1-.84h-4.56l-.09.65Z"/><polygon id="N" class="cls-1" points="173.16 28.08 172.3 28.08 160.77 .6 152.43 .6 152.43 32.2 156.94 32.2 156.94 4.73 157.8 4.73 169.32 32.2 177.67 32.2 177.67 .6 173.16 .6 173.16 28.08"/><polygon id="E-2" class="cls-1" points="123.48 7.34 141.78 15.52 123.48 15.52 123.48 22.26 146.05 32.62 146.05 28.05 127.67 19.65 146.05 19.65 146.05 12.86 127.76 4.73 146.05 4.73 146.05 .6 123.48 .6 123.48 7.34"/><path id="U" class="cls-1" d="M98.41,31.13c1.9,1.11,4,1.67,6.25,1.67s4.35-.56,6.25-1.67c1.9-1.11,3.42-2.64,4.53-4.55,1.11-1.91,1.67-4.02,1.67-6.27V.6h-4.51v19.5c0,1.53-.36,2.97-1.07,4.29-.71,1.31-1.69,2.37-2.9,3.14-2.41,1.53-5.52,1.53-7.93,0-1.22-.77-2.19-1.83-2.9-3.14-.71-1.32-1.07-2.76-1.07-4.29V.6h-4.51v19.71c0,2.25.56,4.35,1.67,6.27,1.11,1.91,2.63,3.44,4.53,4.55h0Z"/><polygon id="L" class="cls-1" points="90.52 28.08 73.75 28.08 73.75 .6 69.24 .6 69.24 32.2 90.52 32.2 90.52 28.08"/><polygon id="F" class="cls-1" points="47.19 18.18 61.56 18.18 61.56 14.1 47.19 14.1 47.19 4.73 63.36 4.73 63.36 .6 42.68 .6 42.68 32.2 47.19 32.2 47.19 18.18"/><polygon id="N-2" class="cls-1" points="15.58 4.73 16.44 4.73 27.96 32.2 36.31 32.2 36.31 .6 31.8 .6 31.8 28.08 30.94 28.08 19.41 .6 11.07 .6 11.07 32.2 15.58 32.2 15.58 4.73"/><rect id="I" class="cls-1" y=".6" width="4.51" height="31.6"/></g></g></svg>